<svg width="50" height="50" viewBox="0 0 50 50" fill="none" xmlns="http://www.w3.org/2000/svg">
<mask id="path-1-inside-1_46_117" fill="white">
<rect x="2" y="8" width="46" height="39" rx="2"/>
</mask>
<rect x="2" y="8" width="46" height="39" rx="2" stroke="#04B3B8" stroke-width="8" mask="url(#path-1-inside-1_46_117)"/>
<path d="M4 18H45.5" stroke="#04B3B8" stroke-width="4" stroke-linecap="round"/>
<path d="M29.4785 26.8184C29.4785 27.4954 29.332 28.0814 29.0391 28.5762C28.7526 29.0645 28.3685 29.4648 27.8867 29.7773C27.4115 30.0898 26.8906 30.3242 26.3242 30.4805V30.5391C27.4635 30.6823 28.3424 31.0306 28.9609 31.584C29.5859 32.1309 29.8984 32.9089 29.8984 33.918C29.8984 34.6992 29.6901 35.4154 29.2734 36.0664C28.8568 36.7109 28.209 37.2285 27.3301 37.6191C26.4512 38.0033 25.3216 38.1953 23.9414 38.1953C23.0169 38.1953 22.2292 38.127 21.5781 37.9902C20.9271 37.8535 20.2956 37.6647 19.6836 37.4238V34.2207C20.3021 34.5397 20.9368 34.7773 21.5879 34.9336C22.2454 35.0833 22.8444 35.1582 23.3848 35.1582C24.3223 35.1582 24.9603 35.0247 25.2988 34.7578C25.6439 34.4909 25.8164 34.1328 25.8164 33.6836C25.8164 33.3581 25.735 33.0814 25.5723 32.8535C25.4095 32.6257 25.1068 32.4499 24.6641 32.3262C24.2279 32.2025 23.5996 32.1406 22.7793 32.1406H21.9004V29.2402H22.7988C23.528 29.2402 24.1042 29.1751 24.5273 29.0449C24.957 28.9147 25.2663 28.7389 25.4551 28.5176C25.6439 28.2897 25.7383 28.0293 25.7383 27.7363C25.7383 27.3587 25.5918 27.0788 25.2988 26.8965C25.0059 26.7142 24.6185 26.623 24.1367 26.623C23.707 26.623 23.3034 26.6816 22.9258 26.7988C22.5482 26.916 22.2194 27.0462 21.9395 27.1895C21.6595 27.3327 21.4479 27.4499 21.3047 27.541L19.7031 24.9629C20.2956 24.5592 20.9727 24.2174 21.7344 23.9375C22.5026 23.6576 23.5052 23.5176 24.7422 23.5176C26.2135 23.5176 27.3691 23.8105 28.209 24.3965C29.0553 24.9824 29.4785 25.7897 29.4785 26.8184Z" fill="#04B3B8"/>
<rect x="8" y="3" width="3" height="6" rx="1.5" fill="#04B3B8"/>
<rect x="39" y="3" width="3" height="6" rx="1.5" fill="#04B3B8"/>
<rect x="29" y="3" width="3" height="6" rx="1.5" fill="#04B3B8"/>
<rect x="18" y="3" width="3" height="6" rx="1.5" fill="#04B3B8"/>
</svg>
