<svg width="50" height="50" viewBox="0 0 50 50" fill="none" xmlns="http://www.w3.org/2000/svg">
<circle cx="25" cy="26.75" r="16.5" stroke="#04B3B8" stroke-width="4"/>
<path d="M28.0968 35.8478H23.2018V27.0221C23.2018 26.8593 23.2018 26.5623 23.2018 26.131C23.2018 25.6915 23.2059 25.2073 23.214 24.6783C23.2303 24.1494 23.2506 23.6733 23.275 23.2501C23.0634 23.5024 22.8641 23.7181 22.6769 23.8971C22.4978 24.0761 22.3229 24.243 22.152 24.3976L20.1256 26.0699L17.6232 22.9938L23.7511 18.0011H28.0968V35.8478Z" fill="#04B3B8"/>
<path d="M32 11.75V4.27246C32 3.72018 31.5523 3.27246 31 3.27246H19C18.4477 3.27246 18 3.72018 18 4.27246V11.75" stroke="#04B3B8" stroke-width="4"/>
<path d="M12.8526 13.6016L9.66919 11.3038C9.22138 10.9805 8.59632 11.0815 8.27308 11.5293L5.56416 15.2822C5.24092 15.7301 5.3419 16.3551 5.78971 16.6784L8.97309 18.9762" stroke="#04B3B8" stroke-width="4"/>
<path d="M37.1471 13.6016L40.3304 11.3038C40.7783 10.9805 41.4033 11.0815 41.7266 11.5293L44.4355 15.2822C44.7587 15.7301 44.6577 16.3551 44.2099 16.6784L41.0265 18.9762" stroke="#04B3B8" stroke-width="4"/>
</svg>
