<svg width="30" height="30" viewBox="0 0 30 30" fill="none" xmlns="http://www.w3.org/2000/svg">
<path d="M14.2459 16.499L11.9719 14.2251C10.8004 13.0535 10.8004 11.154 11.9719 9.98241L12.3559 9.5985C13.5274 8.42693 13.5274 6.52743 12.3559 5.35586L10.1213 3.12132C8.94975 1.94975 7.05025 1.94975 5.87868 3.12132L4.14147 4.85853C3.64521 5.35479 3.32467 6.00945 3.35504 6.7106C3.48542 9.72042 5.01152 15.3181 10.5446 20.2002" stroke="#414141" stroke-width="3"/>
<path d="M13.5518 15.8051L15.8257 18.079C16.9973 19.2505 18.8968 19.2505 20.0684 18.079L20.4523 17.695C21.6239 16.5235 23.5233 16.5235 24.6949 17.695L26.9295 19.9296C28.101 21.1012 28.101 23.0007 26.9295 24.1722L25.1922 25.9094C24.696 26.4057 24.0413 26.7262 23.3402 26.6959C20.3304 26.5655 14.7327 25.0394 9.85057 19.5063" stroke="#414141" stroke-width="3"/>
</svg>
