<svg width="50" height="50" viewBox="0 0 50 50" fill="none" xmlns="http://www.w3.org/2000/svg">
<mask id="path-1-inside-1_46_129" fill="white">
<path d="M41.7 26.5C41.8657 26.5 42.0002 26.6344 41.9977 26.8C41.9351 30.8679 40.6015 34.8172 38.18 38.0926C35.6989 41.4485 32.2066 43.9198 28.2166 45.1433C24.2265 46.3667 19.9492 46.2778 16.0134 44.8895C12.0777 43.5012 8.69113 40.8869 6.3517 37.4308C4.01227 33.9747 2.84337 29.8592 3.01685 25.6894C3.19034 21.5196 4.69705 17.5154 7.31547 14.2656C9.93389 11.0158 13.5259 8.69178 17.5633 7.63523C21.504 6.60402 25.6661 6.83332 29.466 8.28667C29.6207 8.34586 29.6955 8.52072 29.6339 8.67454L22.6647 26.0885C22.5858 26.2856 22.7309 26.5 22.9432 26.5H41.7Z"/>
</mask>
<path d="M41.7 26.5C41.8657 26.5 42.0002 26.6344 41.9977 26.8C41.9351 30.8679 40.6015 34.8172 38.18 38.0926C35.6989 41.4485 32.2066 43.9198 28.2166 45.1433C24.2265 46.3667 19.9492 46.2778 16.0134 44.8895C12.0777 43.5012 8.69113 40.8869 6.3517 37.4308C4.01227 33.9747 2.84337 29.8592 3.01685 25.6894C3.19034 21.5196 4.69705 17.5154 7.31547 14.2656C9.93389 11.0158 13.5259 8.69178 17.5633 7.63523C21.504 6.60402 25.6661 6.83332 29.466 8.28667C29.6207 8.34586 29.6955 8.52072 29.6339 8.67454L22.6647 26.0885C22.5858 26.2856 22.7309 26.5 22.9432 26.5H41.7Z" stroke="#04B3B8" stroke-width="8" mask="url(#path-1-inside-1_46_129)"/>
<mask id="path-2-inside-2_46_129" fill="white">
<path d="M45.4251 24.0538C45.5908 24.0538 45.7253 23.9195 45.7228 23.7538C45.6631 19.8754 44.4479 16.1003 42.2293 12.9131C40.0106 9.72584 36.8922 7.27558 33.2757 5.87312C33.1213 5.81321 32.9485 5.89275 32.891 6.04812L26.3747 23.6497C26.3022 23.8456 26.4471 24.0538 26.6561 24.0538H45.4251Z"/>
</mask>
<path d="M45.4251 24.0538C45.5908 24.0538 45.7253 23.9195 45.7228 23.7538C45.6631 19.8754 44.4479 16.1003 42.2293 12.9131C40.0106 9.72584 36.8922 7.27558 33.2757 5.87312C33.1213 5.81321 32.9485 5.89275 32.891 6.04812L26.3747 23.6497C26.3022 23.8456 26.4471 24.0538 26.6561 24.0538H45.4251Z" stroke="#04B3B8" stroke-width="8" mask="url(#path-2-inside-2_46_129)"/>
</svg>
