<svg width="100" height="100" viewBox="0 0 100 100" fill="none" xmlns="http://www.w3.org/2000/svg">
<rect x="21" y="15" width="57" height="70" rx="3" stroke="#1795D3" stroke-width="4"/>
<rect x="27" y="28" width="14" height="4" rx="1" fill="#1795D3"/>
<rect x="27" y="38" width="23" height="4" rx="1" fill="#1795D3"/>
<rect x="27" y="48" width="43" height="4" rx="1" fill="#1795D3"/>
<rect x="27" y="58" width="43" height="4" rx="1" fill="#1795D3"/>
<rect x="27" y="68" width="43" height="4" rx="1" fill="#1795D3"/>
<path d="M59.3447 28.4098L60.5 24.8541L61.6553 28.4098L63.0819 27.9463L61.6553 28.4098C61.99 29.4399 62.9499 30.1373 64.033 30.1373H67.7717L64.747 32.3348C63.8708 32.9715 63.5041 34.0999 63.8388 35.1299L64.9941 38.6857L61.9695 36.4881C61.0932 35.8515 59.9068 35.8515 59.0305 36.4881L56.0059 38.6857L57.1612 35.1299C57.4959 34.0999 57.1292 32.9715 56.253 32.3348L53.2283 30.1373H56.967C58.0501 30.1373 59.01 29.4399 59.3447 28.4098Z" stroke="#1795D3" stroke-width="3"/>
</svg>
