<svg width="185" height="185" viewBox="0 0 185 185" fill="none" xmlns="http://www.w3.org/2000/svg">
<g clip-path="url(#clip0_355_24)">
<circle cx="133" cy="149" r="69" stroke="#1A78A6" stroke-width="10"/>
<path d="M115.7 188V116.6H134.5C143.233 116.6 149.7 118.367 153.9 121.9C158.167 125.433 160.3 130.567 160.3 137.3C160.3 141.833 159.267 145.733 157.2 149C155.133 152.2 152.067 154.667 148 156.4C144 158.133 139.033 159 133.1 159H124.7V188H115.7ZM107 174.4V167.9H141.2V174.4H107ZM107 159V151.4H129.9V159H107ZM131.8 151.4C135.867 151.4 139.3 150.967 142.1 150.1C144.967 149.233 147.167 147.8 148.7 145.8C150.233 143.8 151 141.067 151 137.6C151 133.067 149.6 129.7 146.8 127.5C144 125.3 139.633 124.2 133.7 124.2H124.7V151.4H131.8Z" fill="#1A78A6"/>
</g>
<defs>
<clipPath id="clip0_355_24">
<rect width="185" height="185" fill="white"/>
</clipPath>
</defs>
</svg>
