<svg width="40" height="40" viewBox="0 0 40 40" fill="none" xmlns="http://www.w3.org/2000/svg">
<g clip-path="url(#clip0_46_153)">
<path d="M0 15C0 6.71573 6.71573 0 15 0H40V40H0V15Z" fill="#589DBF"/>
<path d="M29.7829 14.9889C29.8132 14.2196 29.3676 13.7486 28.9608 13.5066L31.451 12.6168L27.3878 30.3864C27.3847 30.3989 27.3815 30.4109 27.3784 30.4225C27.373 30.4199 27.3674 30.4173 27.3618 30.4147L21.238 26.2291L20.269 25.5668L19.3931 26.3481L17.8814 27.6965L18.0423 25.5843L29.0606 16.3506C29.2725 16.1747 29.7541 15.721 29.7829 14.9889ZM8.78013 20.7176L13.4567 19.0466L9.05724 20.8547L8.78013 20.7176ZM7.27634 21.3182C7.27627 21.3182 7.27761 21.3169 7.28061 21.3144C7.27792 21.3169 7.27642 21.3182 7.27634 21.3182Z" stroke="#EAF3F8" stroke-width="3"/>
</g>
<defs>
<clipPath id="clip0_46_153">
<path d="M0 15C0 6.71573 6.71573 0 15 0H40V40H0V15Z" fill="white"/>
</clipPath>
</defs>
</svg>
