<svg width="31" height="31" viewBox="0 0 31 31" fill="none" xmlns="http://www.w3.org/2000/svg">
<path d="M15.2459 16.499L12.9719 14.2251C11.8004 13.0535 11.8004 11.154 12.9719 9.98241L13.3559 9.5985C14.5274 8.42693 14.5274 6.52743 13.3559 5.35586L11.1213 3.12132C9.94975 1.94975 8.05025 1.94975 6.87868 3.12132L5.14147 4.85853C4.64521 5.35479 4.32467 6.00945 4.35504 6.7106C4.48542 9.72042 6.01152 15.3181 11.5446 20.2002" stroke="#EAF3F8" stroke-width="3"/>
<path d="M14.5519 15.805L16.8258 18.0789C17.9974 19.2505 19.8969 19.2505 21.0684 18.0789L21.4523 17.695C22.6239 16.5234 24.5234 16.5234 25.695 17.695L27.9295 19.9295C29.1011 21.1011 29.1011 23.0006 27.9295 24.1722L26.1923 25.9094C25.6961 26.4056 25.0414 26.7262 24.3402 26.6958C21.3304 26.5654 15.7328 25.0393 10.8506 19.5062" stroke="#EAF3F8" stroke-width="3"/>
</svg>
