<svg width="100" height="100" viewBox="0 0 100 100" fill="none" xmlns="http://www.w3.org/2000/svg">
<path d="M13 54.8646V62.8854C13 72.9531 29.7893 81.1146 50.5 81.1146C71.2107 81.1146 88 72.9531 88 62.8854V54.8646" stroke="#1795D3" stroke-width="3"/>
<path d="M88 54.1354C88 64.2031 71.2107 72.3645 50.5 72.3645C29.7893 72.3645 13 64.2031 13 54.1354" stroke="#1795D3" stroke-width="3"/>
<path d="M13 46.8438V54.8646C13 64.9323 29.7893 73.0938 50.5 73.0938C71.2107 73.0938 88 64.9323 88 54.8646V46.8438" stroke="#1795D3" stroke-width="3"/>
<path d="M88 46.1146C88 56.1823 71.2107 64.3437 50.5 64.3437C29.7893 64.3437 13 56.1823 13 46.1146" stroke="#1795D3" stroke-width="3"/>
<path d="M13 37.8438V45.8646C13 55.9323 29.7893 64.0938 50.5 64.0938C71.2107 64.0938 88 55.9323 88 45.8646V37.8438" stroke="#1795D3" stroke-width="3"/>
<path d="M88 37.1146C88 47.1823 71.2107 55.3438 50.5 55.3438C29.7893 55.3438 13 47.1823 13 37.1146" stroke="#1795D3" stroke-width="3"/>
<path d="M13.0001 37.1147C13.0001 27.047 29.7894 18.8855 50.5001 18.8855C71.2107 18.8855 88.0001 27.047 88.0001 37.1147" stroke="#1795D3" stroke-width="3"/>
<path d="M45.6738 47.1243C40.323 45.7565 37.0941 40.3101 38.4618 34.9593C39.5274 30.7907 43.0685 27.9099 47.1113 27.4872" stroke="#1795D3" stroke-width="3" stroke-linecap="round"/>
<path d="M45.5933 24.0665L49.0455 26.0068C49.527 26.2774 49.6979 26.887 49.4273 27.3685L47.4869 30.8207" stroke="#1795D3" stroke-width="3" stroke-linecap="round"/>
<path d="M54.3133 27.1248C59.6713 28.4644 62.9287 33.8938 61.5891 39.2517C60.5455 43.4259 57.0196 46.3252 52.9791 46.7692" stroke="#1795D3" stroke-width="3" stroke-linecap="round"/>
<path d="M54.515 50.1819L51.0527 48.2597C50.5698 47.9916 50.3957 47.3829 50.6637 46.9L52.5859 43.4376" stroke="#1795D3" stroke-width="3" stroke-linecap="round"/>
</svg>
