<svg width="40" height="40" viewBox="0 0 40 40" fill="none" xmlns="http://www.w3.org/2000/svg">
<path d="M0 15C0 6.71573 6.71573 0 15 0H40V40H0V15Z" fill="#589DBF"/>
<circle cx="20.5" cy="20.5" r="13" stroke="#EAF3F8" stroke-width="3"/>
<path d="M25.2078 20.6565C25.2078 24.315 24.5393 27.5547 23.521 29.8237C22.4389 32.235 21.2541 32.9894 20.5 32.9894C19.7459 32.9894 18.561 32.235 17.4789 29.8237C16.4607 27.5547 15.7922 24.315 15.7922 20.6565C15.7922 16.998 16.4607 13.7582 17.4789 11.4892C18.561 9.07796 19.7459 8.32349 20.5 8.32349C21.2541 8.32349 22.4389 9.07796 23.521 11.4892C24.5393 13.7582 25.2078 16.998 25.2078 20.6565Z" stroke="#EAF3F8" stroke-width="3"/>
<path d="M20 25.3642C16.3415 25.3642 13.1017 24.6957 10.8328 23.6775C8.42152 22.5954 7.66705 21.4105 7.66705 20.6564C7.66705 19.9023 8.42152 18.7174 10.8328 17.6353C13.1017 16.6171 16.3415 15.9486 20 15.9486C23.6585 15.9486 26.8983 16.6171 29.1673 17.6353C31.5785 18.7174 32.333 19.9023 32.333 20.6564C32.333 21.4105 31.5785 22.5954 29.1673 23.6775C26.8983 24.6957 23.6585 25.3642 20 25.3642Z" stroke="#EAF3F8" stroke-width="3"/>
</svg>
